<?xml version="1.0" encoding="UTF-8"?>
<svg width="32" height="32" viewBox="0 0 32 32" fill="none" xmlns="http://www.w3.org/2000/svg">
  <rect width="32" height="32" rx="4" fill="#0D0D0D"/>
  <path d="M10.5 22V10H15.25C16.4167 10 17.3889 10.2222 18.1667 10.6667C18.9444 11.1111 19.5278 11.7222 19.9167 12.5C20.3056 13.2778 20.5 14.1389 20.5 15.0833C20.5 16.0278 20.3056 16.8889 19.9167 17.6667C19.5278 18.4444 18.9444 19.0556 18.1667 19.5C17.3889 19.9444 16.4167 20.1667 15.25 20.1667H12.6667V22H10.5ZM12.6667 18.0833H15.0833C15.75 18.0833 16.3056 17.9722 16.75 17.75C17.1944 17.5278 17.5278 17.2222 17.75 16.8333C17.9722 16.4444 18.0833 15.9722 18.0833 15.4167C18.0833 14.8611 17.9722 14.3889 17.75 14C17.5278 13.6111 17.1944 13.3056 16.75 13.0833C16.3056 12.8611 15.75 12.75 15.0833 12.75H12.6667V18.0833Z" fill="white"/>
</svg>
